# xmcd CD database file
#
# Track frame offsets:
#	187
#	26780
#	46362
#	71455
#	90375
#	109920
#	127817
#	146572
#	165410
#	183987
#
# Disc length: 2690 seconds
#
# Revision: 3
# Processed by: cddbd v1.5.2PL0 Copyright (c) Steve Scherf et al.
# Submitted via: CDex 1.51
#
DISCID=7e0a800a
DTITLE=Louis Price - Louis Price
DYEAR=1991
DGENRE=Soul
TTITLE0=Distant Lover
TTITLE1=Play It By Heart
TTITLE2=Heart's Devotion
TTITLE3=Flesh and Blood
TTITLE4=What Becomes Of The Brokenhearted
TTITLE5=Nobody But You
TTITLE6=Just One Thing
TTITLE7=How Can I Make You Love Me
TTITLE8=Try It Baby
TTITLE9=I Believe In You
EXTD=YEAR: 1991
EXTT0=
EXTT1=
EXTT2=
EXTT3=
EXTT4=
EXTT5=
EXTT6=
EXTT7=
EXTT8=
EXTT9=
PLAYORDER=
